<svg xmlns="http://www.w3.org/2000/svg" width="1200" height="520" viewBox="0 0 1200 520" role="img" aria-labelledby="title desc">
  <title id="title">0xverin remote AI and crypto research terminal</title>
  <desc id="desc">A neon terminal combining remote work status with an AI and crypto research system map.</desc>

  <defs>
    <linearGradient id="background" x1="0" y1="0" x2="1" y2="1">
      <stop offset="0" stop-color="#0b2b36" />
      <stop offset="0.52" stop-color="#14233c" />
      <stop offset="1" stop-color="#123440" />
    </linearGradient>
    <linearGradient id="chrome" x1="0" y1="0" x2="1" y2="0">
      <stop offset="0" stop-color="#12313d" />
      <stop offset="0.55" stop-color="#18283d" />
      <stop offset="1" stop-color="#123440" />
    </linearGradient>
    <linearGradient id="frame" x1="0" y1="0" x2="1" y2="1">
      <stop offset="0" stop-color="#00d9ff" />
      <stop offset="0.5" stop-color="#536a91" />
      <stop offset="1" stop-color="#ff3d9a" />
    </linearGradient>
    <path id="frame-orbit" d="M100 1 H1186 A13 13 0 0 1 1199 14 V506 A13 13 0 0 1 1186 519 H14 A13 13 0 0 1 1 506 V14 A13 13 0 0 1 14 1 H100 Z" />
    <pattern id="grid" width="32" height="32" patternUnits="userSpaceOnUse">
      <path d="M32 0 H0 V32" fill="none" stroke="#4a7180" stroke-width="1" />
    </pattern>
    <pattern id="scanlines" width="4" height="4" patternUnits="userSpaceOnUse">
      <path d="M0 3.5 H4" stroke="#a9d9e3" stroke-opacity="0.08" stroke-width="1" />
    </pattern>
  </defs>

  <rect width="1200" height="520" rx="14" fill="url(#background)" />
  <path d="M0 410 L310 74 H560 L160 520 H0 Z" fill="#00d9ff" opacity="0.035" />
  <path d="M810 0 H1200 V190 L1000 420 H780 L1130 0 Z" fill="#ff3d9a" opacity="0.035" />
  <path d="M28 430 H250 L284 396 H430" fill="none" stroke="#00d9ff" stroke-width="1" opacity="0.32" />
  <path d="M956 52 H1110 L1140 82 V126" fill="none" stroke="#ff3d9a" stroke-width="1" opacity="0.3" />
  <rect x="1" y="1" width="1198" height="518" rx="13" fill="none" stroke="url(#frame)" stroke-opacity="0.62" stroke-width="2" />
  <rect x="1" y="1" width="1198" height="42" rx="13" fill="url(#chrome)" />
  <rect x="1" y="31" width="1198" height="12" fill="url(#chrome)" />
  <circle cx="25" cy="22" r="6" fill="#ff4d68" />
  <circle cx="47" cy="22" r="6" fill="#f5a623" />
  <circle cx="69" cy="22" r="6" fill="#47d16c" />
  <text x="600" y="27" text-anchor="middle" fill="#93adba" font-family="ui-monospace, SFMono-Regular, Menlo, monospace" font-size="13">frontier-node / research-session</text>

  <rect x="1" y="43" width="1198" height="476" fill="url(#grid)" opacity="0.38" />
  <rect x="1" y="43" width="1198" height="476" fill="url(#scanlines)" />
  <path d="M600 70 V478" stroke="#547180" stroke-width="1" opacity="0.72" />

  <g font-family="ui-monospace, SFMono-Regular, Menlo, monospace">
    <text x="48" y="82" fill="#38e5ff" font-size="16">0xverin@frontier-node:~$ whoami</text>
    <text x="48" y="128" fill="#f4f7fb" font-size="31" font-weight="600">REMOTE AI x CRYPTO RESEARCH</text>
    <text x="48" y="166" fill="#c0d0d8" font-size="16">Chinese / English · Frontier AI + crypto research.</text>

    <text x="48" y="216" fill="#47d16c" font-size="15">[ok]</text>
    <text x="96" y="216" fill="#d9e1e8" font-size="15">remote_collaboration</text>
    <text x="312" y="216" fill="#91aebb" font-size="15">active</text>

    <text x="48" y="254" fill="#47d16c" font-size="15">[ok]</text>
    <text x="96" y="254" fill="#d9e1e8" font-size="15">working_languages</text>
    <text x="312" y="254" fill="#91aebb" font-size="15">Chinese / English</text>

    <text x="48" y="292" fill="#47d16c" font-size="15">[ok]</text>
    <text x="96" y="292" fill="#d9e1e8" font-size="15">frontier_radar</text>
    <text x="312" y="292" fill="#91aebb" font-size="15">always scanning</text>

    <text x="48" y="330" fill="#47d16c" font-size="15">[ok]</text>
    <text x="96" y="330" fill="#d9e1e8" font-size="15">ai_enthusiasm</text>
    <text x="312" y="330" fill="#91aebb" font-size="15">unreasonably high</text>

    <text x="48" y="368" fill="#f5a623" font-size="15">[!!]</text>
    <text x="96" y="368" fill="#d9e1e8" font-size="15">token_efficiency</text>
    <text x="312" y="368" fill="#f5a623" font-size="15">questionable</text>

    <path d="M48 410 H548" stroke="#38e5ff" stroke-width="1" opacity="0.36" />
    <text x="48" y="446" fill="#38e5ff" font-size="13">REMOTE / BILINGUAL / AI-FIRST</text>
    <text x="48" y="478" fill="#ff3d9a" font-size="13">PROFESSIONAL_TOKEN_WASTER :: TRUE</text>

    <text x="640" y="82" fill="#ff5aa7" font-size="16">$ tree ~/research --depth=3</text>
    <text x="640" y="120" fill="#f4f7fb" font-size="23" font-weight="600">RESEARCH / SYSTEM MAP</text>

    <text x="640" y="160" fill="#ff5aa7" font-size="15">research/</text>
    <path d="M654 174 V452 M654 190 H678 M654 252 H678 M678 266 V396 M678 282 H704 M678 320 H704 M678 358 H704 M678 396 H704 M654 452 H678" fill="none" stroke="#547180" stroke-width="1.5" />

    <text x="690" y="196" fill="#38e5ff" font-size="15">agent-systems/</text>
    <text x="842" y="196" fill="#93adba" font-size="14">skills · codex · claude</text>

    <text x="690" y="258" fill="#ff5aa7" font-size="15">crypto-systems/</text>
    <text x="716" y="288" fill="#d9e1e8" font-size="14">defi/</text>
    <text x="842" y="288" fill="#93adba" font-size="14">protocols · liquidity · on-chain flows</text>

    <text x="716" y="326" fill="#d9e1e8" font-size="14">dex/</text>
    <text x="842" y="326" fill="#93adba" font-size="14">EVM · Bitcoin · Polkadot</text>

    <text x="716" y="364" fill="#d9e1e8" font-size="14">cex/</text>
    <text x="842" y="364" fill="#93adba" font-size="14">information monitoring · alerts</text>

    <text x="716" y="402" fill="#d9e1e8" font-size="14">automation/</text>
    <text x="842" y="402" fill="#93adba" font-size="14">arbitrage scripts · spread monitoring</text>

    <text x="690" y="458" fill="#38e5ff" font-size="15">frontier-tech/</text>
    <text x="842" y="458" fill="#93adba" font-size="14">new tools · new models · experiments</text>

    <g transform="translate(998 480) scale(0.55)" fill="none" stroke="#93adba" stroke-width="2" stroke-linecap="round" stroke-linejoin="round">
      <path d="M20 10c0 6-8 12-8 12S4 16 4 10a8 8 0 1 1 16 0Z" />
      <circle cx="12" cy="10" r="3" />
    </g>
    <text x="1148" y="494" text-anchor="end" fill="#93adba" font-size="12">CHINA HEFEI / UTC+8</text>
  </g>

  <g>
    <ellipse cx="-11" rx="14" ry="2.5" fill="#38e5ff" opacity="0.12" />
    <ellipse cx="-7" rx="9" ry="1.5" fill="#80efff" opacity="0.32" />
    <circle r="7" fill="#38e5ff" opacity="0.14" />
    <circle r="4" fill="#80efff" opacity="0.4" />
    <circle r="2" fill="#ffffff" />
    <animateMotion dur="8s" repeatCount="indefinite" rotate="auto">
      <mpath href="#frame-orbit" />
    </animateMotion>
  </g>
</svg>
